# xmcd CD database file
#
# Track frame offsets:
#	150
#	16568
#	36839
#	57198
#	74836
#	95183
#	114102
#	135067
#	159180
#	185205
#	206059
#	230683
#	253467
#	282598
#	313008
#
# Disc length: 4460 seconds
#
# Revision: 0
# Processed by: cddbd v1.5.1PL2 Copyright (c) Steve Scherf et al.
# Submitted via: CDex 1.51
#
DISCID=db116a0f
DTITLE=Sandy Thorne - Laugh Yer Guts Out
DYEAR=2000
DGENRE=Country
TTITLE0=Learning Australia
TTITLE1=Just Say G'day
TTITLE2=Country Mum
TTITLE3=Bush Tucker
TTITLE4=The Bush Dentist
TTITLE5=Pudding Basin Harry
TTITLE6=The Boudary Rider's Blowout
TTITLE7=The Shearer's Cook
TTITLE8=The Newly Weds
TTITLE9=The Battler
TTITLE10=A Bushie At The Gold Coast
TTITLE11=One Eyed Nell
TTITLE12=The Hangover
TTITLE13=The Shot Gun Wedding
TTITLE14=Bogged
EXTD=YEAR: 2000
EXTT0=
EXTT1=
EXTT2=
EXTT3=
EXTT4=
EXTT5=
EXTT6=
EXTT7=
EXTT8=
EXTT9=
EXTT10=
EXTT11=
EXTT12=
EXTT13=
EXTT14=
PLAYORDER=
